<svg xmlns="http://www.w3.org/2000/svg" width="19" height="5" viewBox="0 0 19 5" fill="none">
  <path d="M9.9248 3.90137C10.4771 3.90137 10.9248 3.45365 10.9248 2.90137C10.9248 2.34908 10.4771 1.90137 9.9248 1.90137C9.37252 1.90137 8.9248 2.34908 8.9248 2.90137C8.9248 3.45365 9.37252 3.90137 9.9248 3.90137Z" stroke="currentColor" stroke-width="2" stroke-linecap="round" stroke-linejoin="round"/>
  <path d="M16.9248 3.90137C17.4771 3.90137 17.9248 3.45365 17.9248 2.90137C17.9248 2.34908 17.4771 1.90137 16.9248 1.90137C16.3725 1.90137 15.9248 2.34908 15.9248 2.90137C15.9248 3.45365 16.3725 3.90137 16.9248 3.90137Z" stroke="currentColor" stroke-width="2" stroke-linecap="round" stroke-linejoin="round"/>
  <path d="M2.9248 3.90137C3.47709 3.90137 3.9248 3.45365 3.9248 2.90137C3.9248 2.34908 3.47709 1.90137 2.9248 1.90137C2.37252 1.90137 1.9248 2.34908 1.9248 2.90137C1.9248 3.45365 2.37252 3.90137 2.9248 3.90137Z" stroke="currentColor" stroke-width="2" stroke-linecap="round" stroke-linejoin="round"/>
</svg>