<svg xmlns="http://www.w3.org/2000/svg" width="20" height="25" viewBox="0 0 20 25" fill="none">
	<path fill-rule="evenodd" clip-rule="evenodd"
		d="M6.26797 0.5H13.3239C14.2 0.499987 14.9231 0.499975 15.5122 0.548212C16.124 0.598312 16.6864 0.705837 17.2147 0.975609C18.0339 1.39397 18.6999 2.06152 19.1173 2.88259C19.3865 3.41204 19.4937 3.97572 19.5437 4.58892C19.5919 5.17931 19.5919 5.90406 19.5918 6.78219V18.2178C19.5919 19.0959 19.5919 19.8207 19.5437 20.4111C19.4937 21.0243 19.3865 21.588 19.1173 22.1174C18.6999 22.9385 18.0339 23.606 17.2147 24.0244C16.6864 24.2942 16.124 24.4017 15.5122 24.4518C14.9231 24.5 14.2 24.5 13.3239 24.5H6.26795C5.3918 24.5 4.6687 24.5 4.07965 24.4518C3.46784 24.4017 2.90544 24.2942 2.37719 24.0244C1.55798 23.606 0.891938 22.9385 0.47453 22.1174C0.20537 21.588 0.0980895 21.0243 0.0481029 20.4111C-2.48312e-05 19.8207 -1.3414e-05 19.0959 4.69433e-07 18.2178V6.78222C-1.3414e-05 5.90407 -2.48312e-05 5.17931 0.0481029 4.58892C0.0980895 3.97572 0.20537 3.41204 0.47453 2.88259C0.891938 2.06152 1.55798 1.39397 2.37719 0.975609C2.90544 0.705837 3.46784 0.598312 4.07965 0.548212C4.6687 0.499975 5.39182 0.499987 6.26797 0.5ZM4.25691 2.72278C3.77973 2.76186 3.53569 2.83269 3.36546 2.91962C2.95586 3.1288 2.62284 3.46258 2.41414 3.87311C2.3274 4.04373 2.25673 4.28832 2.21774 4.76659C2.17772 5.25759 2.17687 5.89282 2.17687 6.82727V18.1727C2.17687 19.1072 2.17772 19.7424 2.21774 20.2334C2.25673 20.7117 2.3274 20.9563 2.41414 21.1269C2.62284 21.5374 2.95586 21.8712 3.36546 22.0804C3.53569 22.1673 3.77973 22.2381 4.25691 22.2772C4.74681 22.3173 5.38059 22.3182 6.31293 22.3182H13.2789C14.2112 22.3182 14.845 22.3173 15.3349 22.2772C15.8121 22.2381 16.0561 22.1673 16.2264 22.0804C16.636 21.8712 16.969 21.5374 17.1777 21.1269C17.2644 20.9563 17.3351 20.7117 17.3741 20.2334C17.4141 19.7424 17.415 19.1072 17.415 18.1727V6.82727C17.415 5.89282 17.4141 5.25759 17.3741 4.76659C17.3351 4.28832 17.2644 4.04373 17.1777 3.87311C16.969 3.46258 16.636 3.1288 16.2264 2.91962C16.0561 2.83269 15.8121 2.76186 15.3349 2.72278C14.845 2.68267 14.2112 2.68182 13.2789 2.68182H6.31293C5.38059 2.68182 4.74681 2.68267 4.25691 2.72278ZM4.35374 7.04545C4.35374 6.44296 4.84105 5.95455 5.44218 5.95455H14.1497C14.7508 5.95455 15.2381 6.44296 15.2381 7.04545C15.2381 7.64795 14.7508 8.13636 14.1497 8.13636H5.44218C4.84105 8.13636 4.35374 7.64795 4.35374 7.04545ZM4.35374 11.4091C4.35374 10.8066 4.84105 10.3182 5.44218 10.3182H11.9728C12.5739 10.3182 13.0612 10.8066 13.0612 11.4091C13.0612 12.0116 12.5739 12.5 11.9728 12.5H5.44218C4.84105 12.5 4.35374 12.0116 4.35374 11.4091ZM4.35374 15.7727C4.35374 15.1702 4.84105 14.6818 5.44218 14.6818H7.61905C8.22017 14.6818 8.70748 15.1702 8.70748 15.7727C8.70748 16.3752 8.22017 16.8636 7.61905 16.8636H5.44218C4.84105 16.8636 4.35374 16.3752 4.35374 15.7727Z"
		fill="currentColor" />
</svg>