<svg width="24" height="25" viewBox="0 0 24 25" fill="none" xmlns="http://www.w3.org/2000/svg">
<path d="M5 5.48963C5 4.51847 5 4.03289 5.20249 3.76522C5.37889 3.53203 5.64852 3.38773 5.9404 3.3703C6.27544 3.3503 6.67946 3.61965 7.48752 4.15835L18.0031 11.1687C18.6708 11.6139 19.0046 11.8364 19.1209 12.1169C19.2227 12.3622 19.2227 12.6378 19.1209 12.8831C19.0046 13.1636 18.6708 13.3862 18.0031 13.8313L7.48752 20.8417C6.67946 21.3804 6.27544 21.6497 5.9404 21.6297C5.64852 21.6123 5.37889 21.468 5.20249 21.2348C5 20.9671 5 20.4815 5 19.5104V5.48963Z" stroke="white" stroke-width="2" stroke-linecap="round" stroke-linejoin="round"/>
</svg>
