<svg width="21" height="21" viewBox="0 0 21 21" fill="none" xmlns="http://www.w3.org/2000/svg">
<path d="M5.5 1.5V4.9C5.5 5.46005 5.5 5.74008 5.60899 5.95399C5.70487 6.14215 5.85785 6.29513 6.04601 6.39101C6.25992 6.5 6.53995 6.5 7.1 6.5H13.9C14.4601 6.5 14.7401 6.5 14.954 6.39101C15.1422 6.29513 15.2951 6.14215 15.391 5.95399C15.5 5.74008 15.5 5.46005 15.5 4.9V2.5M15.5 19.5V13.1C15.5 12.5399 15.5 12.2599 15.391 12.046C15.2951 11.8578 15.1422 11.7049 14.954 11.609C14.7401 11.5 14.4601 11.5 13.9 11.5H7.1C6.53995 11.5 6.25992 11.5 6.04601 11.609C5.85785 11.7049 5.70487 11.8578 5.60899 12.046C5.5 12.2599 5.5 12.5399 5.5 13.1V19.5M19.5 7.82548V14.7C19.5 16.3802 19.5 17.2202 19.173 17.862C18.8854 18.4265 18.4265 18.8854 17.862 19.173C17.2202 19.5 16.3802 19.5 14.7 19.5H6.3C4.61984 19.5 3.77976 19.5 3.13803 19.173C2.57354 18.8854 2.1146 18.4265 1.82698 17.862C1.5 17.2202 1.5 16.3802 1.5 14.7V6.3C1.5 4.61984 1.5 3.77976 1.82698 3.13803C2.1146 2.57354 2.57354 2.1146 3.13803 1.82698C3.77976 1.5 4.61984 1.5 6.3 1.5H13.1745C13.6637 1.5 13.9083 1.5 14.1385 1.55526C14.3425 1.60425 14.5376 1.68506 14.7166 1.79472C14.9184 1.9184 15.0914 2.09135 15.4373 2.43726L18.5627 5.56274C18.9086 5.90865 19.0816 6.0816 19.2053 6.28343C19.3149 6.46237 19.3957 6.65746 19.4447 6.86154C19.5 7.09171 19.5 7.3363 19.5 7.82548Z" stroke="white" stroke-width="2" stroke-linecap="round" stroke-linejoin="round"/>
</svg>
