<svg xmlns="http://www.w3.org/2000/svg" width="49" height="59" viewBox="0 0 49 59" fill="none">
  <path fill-rule="evenodd" clip-rule="evenodd" d="M23.7373 0.0987685C24.2431 0.0256709 24.7569 0.0256709 25.2627 0.0987685C25.8457 0.183013 26.3882 0.387955 26.819 0.550686C26.8584 0.565579 26.8969 0.580119 26.9344 0.594181L41.2321 5.95582C41.3492 5.99972 41.4653 6.04308 41.5805 6.08608C43.2279 6.70113 44.6746 7.24127 45.7887 8.22316C46.7634 9.08212 47.5142 10.1655 47.9763 11.3798C48.5044 12.7677 48.5022 14.312 48.4997 16.0705C48.4995 16.1934 48.4993 16.3174 48.4993 16.4424V29.1951C48.4993 36.7325 44.4 43.0166 39.9687 47.633C35.5078 52.2803 30.4038 55.5628 27.705 57.1373C27.6694 57.1581 27.633 57.1794 27.5957 57.2013C27.1032 57.4905 26.464 57.8659 25.6183 58.0473C24.9264 58.1956 24.0736 58.1956 23.3817 58.0473C22.536 57.8659 21.8968 57.4905 21.4043 57.2013C21.367 57.1794 21.3306 57.1581 21.295 57.1373C18.5962 55.5628 13.4922 52.2803 9.03128 47.633C4.60003 43.0166 0.500706 36.7325 0.500706 29.1951V16.4424C0.500706 16.3174 0.500527 16.1934 0.500349 16.0705C0.497802 14.312 0.495565 12.7677 1.02373 11.3798C1.48578 10.1655 2.23659 9.08212 3.21126 8.22316C4.32542 7.24126 5.77215 6.70113 7.41955 6.08607C7.53471 6.04308 7.65084 5.99972 7.76791 5.95582L22.0656 0.594181C22.1031 0.580119 22.1416 0.565579 22.181 0.550685C22.6118 0.387955 23.1543 0.183013 23.7373 0.0987685ZM24.492 5.38585C24.383 5.42156 24.2353 5.47638 23.9382 5.58779L9.64051 10.9494C7.43994 11.7746 7.01645 11.9784 6.7374 12.2243C6.41251 12.5106 6.16224 12.8718 6.00822 13.2765C5.87594 13.6241 5.83388 14.0922 5.83388 16.4424V29.1951C5.83388 34.7464 8.87296 39.7666 12.8788 43.9398C16.8549 48.0821 21.4867 51.0747 23.9825 52.5307C24.135 52.6197 24.245 52.6838 24.3407 52.7377C24.4158 52.7799 24.4658 52.8066 24.5 52.824C24.5343 52.8066 24.5842 52.7799 24.6593 52.7377C24.755 52.6838 24.865 52.6197 25.0175 52.5307C27.5133 51.0747 32.1451 48.0821 36.1212 43.9398C40.127 39.7666 43.1661 34.7464 43.1661 29.1951V16.4424C43.1661 14.0922 43.1241 13.6241 42.9918 13.2765C42.8378 12.8718 42.5875 12.5106 42.2626 12.2243C41.9836 11.9784 41.5601 11.7746 39.3595 10.9494L25.0618 5.58779C24.7647 5.47638 24.617 5.42156 24.508 5.38585C24.5053 5.38493 24.5026 5.38406 24.5 5.38323C24.4974 5.38406 24.4947 5.38493 24.492 5.38585ZM24.5 10.529C25.9727 10.529 27.1666 11.7228 27.1666 13.1956V14.5289H27.5221C30.4666 14.5289 33.0177 16.1944 34.2927 18.6222C34.9775 19.9261 34.4756 21.5381 33.1717 22.2229C31.8678 22.9076 30.2558 22.4057 29.5711 21.1018C29.181 20.3591 28.4074 19.862 27.5221 19.862H21.8334C20.3607 19.862 19.1668 21.0559 19.1668 22.5286C19.1668 24.0013 20.3607 25.1952 21.8334 25.1952H27.1666C31.5847 25.1952 35.1664 28.7768 35.1664 33.195C35.1664 37.6131 31.5847 41.1947 27.1666 41.1947V42.528C27.1666 44.0007 25.9727 45.1946 24.5 45.1946C23.0273 45.1946 21.8334 44.0007 21.8334 42.528V41.1947H21.4779C18.5334 41.1947 15.9823 39.5292 14.7073 37.1014C14.0225 35.7975 14.5244 34.1854 15.8283 33.5007C17.1322 32.816 18.7442 33.3179 19.429 34.6217C19.819 35.3645 20.5926 35.8616 21.4779 35.8616H27.1666C28.6393 35.8616 29.8332 34.6677 29.8332 33.195C29.8332 31.7223 28.6393 30.5284 27.1666 30.5284H21.8334C17.4153 30.5284 13.8336 26.9468 13.8336 22.5286C13.8336 18.1105 17.4153 14.5289 21.8334 14.5289V13.1956C21.8334 11.7228 23.0273 10.529 24.5 10.529Z" fill="#2137FF"/>
</svg>