<svg xmlns="http://www.w3.org/2000/svg" viewBox="0 0 20 24" fill="none">
  <path fill-rule="evenodd" clip-rule="evenodd" d="M5.15269 1.10521C5.16685 1.11465 5.18105 1.12412 5.1953 1.13362L17.6905 9.46373C18.052 9.7047 18.3872 9.92813 18.6446 10.1357C18.9133 10.3524 19.2301 10.6529 19.4124 11.0925C19.6533 11.6735 19.6533 12.3265 19.4124 12.9075C19.2301 13.3471 18.9133 13.6476 18.6446 13.8643C18.3872 14.0719 18.052 14.2953 17.6905 14.5363L5.15272 22.8948C4.7108 23.1894 4.31342 23.4544 3.97622 23.6371C3.6388 23.82 3.17564 24.029 2.63506 23.9967C1.9436 23.9554 1.30484 23.6135 0.886936 23.0611C0.560219 22.6292 0.477172 22.1279 0.442154 21.7457C0.407161 21.3638 0.407193 20.8862 0.407229 20.3551L0.407231 3.69611C0.407231 3.67899 0.40723 3.66191 0.407229 3.64489C0.407193 3.11376 0.407161 2.63616 0.442154 2.25425C0.477172 1.87206 0.560219 1.37078 0.886936 0.938892C1.30484 0.386461 1.9436 0.0446096 2.63506 0.00332377C3.17564 -0.0289532 3.6388 0.180008 3.97623 0.362872C4.31341 0.545605 4.71078 0.810556 5.15269 1.10521ZM2.80602 2.42374C2.80442 2.43809 2.80284 2.45363 2.8013 2.47041C2.77745 2.7307 2.77626 3.0974 2.77626 3.69611V20.3039C2.77626 20.9026 2.77745 21.2693 2.8013 21.5296C2.80284 21.5464 2.80442 21.5619 2.80602 21.5763C2.81884 21.5696 2.83265 21.5623 2.84746 21.5543C3.07727 21.4298 3.38304 21.2273 3.8812 20.8952L16.337 12.5913C16.7514 12.3151 16.9943 12.1518 17.1575 12.0202C17.1663 12.0131 17.1745 12.0063 17.1821 12C17.1745 11.9937 17.1663 11.9869 17.1575 11.9798C16.9943 11.8482 16.7514 11.6849 16.337 11.4087L3.8812 3.10477C3.38304 2.77266 3.07727 2.57024 2.84746 2.4457C2.83265 2.43768 2.81884 2.43038 2.80602 2.42374Z" fill="currentColor"/>
</svg>