<svg xmlns="http://www.w3.org/2000/svg" width="42" height="31" viewBox="0 0 42 31" fill="none">
  <path d="M29.4853 6.65685C34.1716 11.3431 34.1716 18.9411 29.4853 23.6274M12.5147 23.6273C7.82843 18.9411 7.82843 11.3431 12.5147 6.65678M6.85786 29.2843C-0.952621 21.4738 -0.952621 8.81049 6.85786 1M35.1421 1.00009C42.9526 8.81058 42.9526 21.4739 35.1421 29.2844M25 15.1421C25 17.3513 23.2091 19.1421 21 19.1421C18.7909 19.1421 17 17.3513 17 15.1421C17 12.933 18.7909 11.1421 21 11.1421C23.2091 11.1421 25 12.933 25 15.1421Z" stroke="white" stroke-width="2" stroke-linecap="round" stroke-linejoin="round"/>
</svg>