<?xml version="1.0" encoding="UTF-8"?>
<svg id="Layer_2" xmlns="http://www.w3.org/2000/svg" viewBox="0 0 398.01 283.52">
	<defs>
		<style>
			.cls-1 {
				fill: currentColor;
			}
		</style>
	</defs>
	<g id="Layer_1-2">
		<path class="cls-1"
			d="m311.88,170.11l-5.88.44,3.6-.43h-103.75c-5.49,0-10.4,3.44-12.28,8.6l-14.3,39.26c-.58,1.6-2.11,2.67-3.81,2.67H18.65l-3.13,8.6L.61,270.23c-2.35,6.46,2.43,13.29,9.31,13.29h281.24c23.76,0,44.99-14.86,53.12-37.19l7.17-19.71c10-27.46-10.34-56.51-39.57-56.51Zm33.71,55.06l-6.95,19.1c-7.24,19.88-26.32,33.24-47.48,33.24H9.91c-1.83,0-2.85-1.16-3.2-1.67-.35-.5-1.1-1.85-.47-3.58l14.22-39.08h157.83c.88,0,1.73-.1,2.57-.27h1.82c2.52,0,4.78-1.58,5.64-3.95l.62-1.71c.45-.73.84-1.5,1.14-2.33l14.54-39.92c.53-1.44,1.82-2.47,3.34-2.65l32.23-3.88c8.23-.99,16.5-1.55,24.78-1.67l47.12-.7c12.04.07,22.88,5.85,29.67,15.85,6.61,9.73,7.84,22.16,3.82,33.21Z" />
		<path class="cls-1"
			d="m355.87,0H105.92c-4.16,0-7.88,2.6-9.31,6.52l-15.98,43.91h0l-4.57,12.55h153.94c2.76,0,4.68,2.74,3.73,5.33l-10.32,28.36c-2.96,8.13,3.06,16.73,11.72,16.73h100.01,0,0c23.76,0,44.99-14.86,53.12-37.19l7.17-19.71c10-27.46-10.34-56.51-39.57-56.51Zm33.71,55.06l-6.95,19.11c-7.23,19.85-26.26,33.2-47.38,33.24h-33.07c-9.85,0-19.7-.62-29.48-1.84l-32.43-4.07c-2.57-.32-4.18-2.95-3.29-5.39l10.46-28.74c2.99-8.23-3.1-16.93-11.86-16.93H87.02l15.24-41.86c.56-1.54,2.03-2.57,3.67-2.57h249.95c11.87,0,22.59,5.54,29.45,15.22s8.38,22.53,4.26,33.84Z" />
		<path class="cls-1"
			d="m52.47,176.38h87.15c5.25,0,9.94-3.29,11.74-8.22l15.9-43.67c3.07-8.43-3.18-17.35-12.15-17.35h-86.27c-5.33,0-10.08,3.33-11.9,8.33l-16.12,44.26c-2.95,8.1,3.05,16.66,11.66,16.66Zm2.16-17.91l13.19-36.25c.56-1.53,2.01-2.54,3.63-2.54h78.56c2.74,0,4.65,2.72,3.71,5.3l-13.18,36.21c-.58,1.59-2.09,2.64-3.77,2.64H58.38c-2.77,0-4.7-2.75-3.75-5.36Z" />
	</g>
</svg>