<svg viewBox="0 0 33 38" fill="none" xmlns="http://www.w3.org/2000/svg">
  <path fill-rule="evenodd" clip-rule="evenodd" d="M10.8485 0.485468C10.8707 0.485688 10.8904 0.485883 10.9074 0.485883H20.5948C21.1468 0.485883 21.6637 0.756581 21.9782 1.21031C22.2926 1.66404 22.3646 2.24311 22.1707 2.76L19.2365 10.5847L28.8492 10.5847C29.2935 10.5846 29.7329 10.5845 30.0878 10.6161C30.4085 10.6447 31.0589 10.7198 31.6045 11.1806C32.2169 11.698 32.5472 12.4754 32.4945 13.2754C32.4476 13.988 32.0502 14.5083 31.8482 14.759C31.6246 15.0364 31.3195 15.3526 31.011 15.6724L10.4452 36.9999C9.90604 37.5591 9.05421 37.6766 8.38373 37.2844C7.71325 36.8921 7.39829 36.092 7.6215 35.348L12.0209 20.6834H3.83825C3.82061 20.6834 3.80287 20.6834 3.78505 20.6834C3.47162 20.6835 3.13222 20.6836 2.84611 20.6574C2.54615 20.63 2.04594 20.5575 1.57424 20.2276C1.00516 19.8296 0.625164 19.2147 0.523662 18.5278C0.43953 17.9583 0.598429 17.4785 0.708019 17.1979C0.812548 16.9303 0.964411 16.6268 1.10466 16.3465C1.11264 16.3306 1.12058 16.3147 1.12847 16.2989L8.19761 2.16062C8.20519 2.14545 8.21384 2.12773 8.22357 2.10777C8.31717 1.91585 8.51131 1.5178 8.82875 1.20689C9.0961 0.945037 9.41832 0.745893 9.7721 0.623869C10.1921 0.478986 10.635 0.48336 10.8485 0.485468ZM11.1154 3.85214L4.38292 17.3172H14.283C14.8151 17.3172 15.3158 17.5687 15.6334 17.9956C15.951 18.4225 16.0481 18.9743 15.8952 19.484L12.8404 29.6665L27.9947 13.9509H16.8077C16.2557 13.9509 15.7388 13.6802 15.4243 13.2265C15.1099 12.7728 15.0379 12.1937 15.2318 11.6768L18.166 3.85214H11.1154Z" fill="white"/>
</svg>