<svg width="24" height="24" viewBox="0 0 24 24" fill="none" xmlns="http://www.w3.org/2000/svg">
<g id="pencil-01">
<path id="Icon" d="M2.49997 21.5001L8.04924 19.3657C8.40418 19.2292 8.58165 19.161 8.74769 19.0718C8.89517 18.9927 9.03577 18.9013 9.16801 18.7987C9.31689 18.6831 9.45134 18.5487 9.72025 18.2798L21 7.00006C22.1046 5.89549 22.1046 4.10463 21 3.00006C19.8954 1.89549 18.1046 1.89549 17 3.00006L5.72025 14.2798C5.45135 14.5487 5.31689 14.6831 5.20136 14.832C5.09874 14.9643 5.00737 15.1049 4.9282 15.2523C4.83908 15.4184 4.77082 15.5959 4.6343 15.9508L2.49997 21.5001ZM2.49997 21.5001L4.55809 16.149C4.70537 15.7661 4.779 15.5746 4.90531 15.4869C5.01569 15.4103 5.15227 15.3813 5.28427 15.4065C5.4353 15.4354 5.58035 15.5804 5.87045 15.8705L8.12954 18.1296C8.41964 18.4197 8.56469 18.5648 8.59353 18.7158C8.61874 18.8478 8.58976 18.9844 8.51311 19.0947C8.42542 19.2211 8.23396 19.2947 7.85104 19.442L2.49997 21.5001Z" stroke="white" stroke-width="2" stroke-linecap="round" stroke-linejoin="round"/>
</g>
</svg>
