<svg xmlns="http://www.w3.org/2000/svg" width="27" height="32" viewBox="0 0 27 32" fill="none">
  <path fill-rule="evenodd" clip-rule="evenodd" d="M7.03676 1.47361C7.05563 1.4862 7.07457 1.49882 7.09357 1.51149L23.7538 12.6183C24.2358 12.9396 24.6828 13.2375 25.026 13.5143C25.3843 13.8033 25.8066 14.2039 26.0497 14.79C26.3709 15.5647 26.3709 16.4353 26.0497 17.21C25.8066 17.7961 25.3843 18.1968 25.026 18.4857C24.6828 18.7625 24.2358 19.0604 23.7538 19.3817L7.0368 30.5264C6.44757 30.9192 5.91773 31.2725 5.46814 31.5162C5.01823 31.76 4.40069 32.0386 3.67992 31.9956C2.75797 31.9405 1.90629 31.4847 1.34908 30.7481C0.913463 30.1723 0.802733 29.5039 0.756042 28.9943C0.709385 28.4851 0.709428 27.8483 0.709476 27.1402L0.709479 4.92815C0.709479 4.90531 0.709477 4.88255 0.709476 4.85985C0.709428 4.15168 0.709385 3.51489 0.756042 3.00567C0.802733 2.49608 0.913462 1.82771 1.34908 1.25186C1.90629 0.515281 2.75797 0.0594795 3.67992 0.0044317C4.4007 -0.0386042 5.01824 0.24001 5.46814 0.48383C5.91772 0.727474 6.44754 1.08074 7.03676 1.47361ZM3.90786 3.23166C3.90573 3.25079 3.90362 3.27151 3.90157 3.29388C3.86977 3.64093 3.86818 4.12987 3.86818 4.92815V27.0719C3.86818 27.8701 3.86977 28.3591 3.90157 28.7061C3.90362 28.7285 3.90573 28.7492 3.90786 28.7683C3.92496 28.7595 3.94337 28.7498 3.96312 28.7391C4.26952 28.573 4.67723 28.3031 5.34143 27.8603L21.9492 16.7885C22.5017 16.4201 22.8256 16.2023 23.0431 16.0269C23.0549 16.0174 23.0658 16.0084 23.076 16C23.0658 15.9916 23.0549 15.9826 23.0431 15.9731C22.8256 15.7977 22.5017 15.5799 21.9492 15.2115L5.34144 4.13969C4.67723 3.69688 4.26952 3.42699 3.96312 3.26094C3.94337 3.25023 3.92496 3.2405 3.90786 3.23166Z" fill="white"/>
</svg>