<svg width="20" height="21" viewBox="0 0 20 21" fill="none" xmlns="http://www.w3.org/2000/svg">
	<path fill-rule="evenodd" clip-rule="evenodd"
		d="M15.2929 0.792893C15.6834 0.402369 16.3166 0.402369 16.7071 0.792893L19.7071 3.79289C20.0976 4.18342 20.0976 4.81658 19.7071 5.20711L16.7071 8.20711C16.3166 8.59763 15.6834 8.59763 15.2929 8.20711C14.9024 7.81658 14.9024 7.18342 15.2929 6.79289L16.5858 5.5H16.5689C15.5674 5.5 15.275 5.51019 15.0244 5.5863C14.7728 5.6627 14.5388 5.78796 14.3356 5.95491C14.1333 6.12123 13.9626 6.35886 13.4071 7.19214L8.25701 14.9173C8.2323 14.9543 8.20794 14.9909 8.1839 15.027C7.73463 15.7018 7.39557 16.2111 6.93428 16.5902C6.52804 16.9241 6.05995 17.1746 5.55679 17.3274C4.98546 17.5009 4.37366 17.5005 3.56299 17.5001C3.51961 17.5 3.47566 17.5 3.43112 17.5H1C0.447715 17.5 0 17.0523 0 16.5C0 15.9477 0.447715 15.5 1 15.5H3.43112C4.4326 15.5 4.72499 15.4898 4.97562 15.4137C5.2272 15.3373 5.46125 15.212 5.66437 15.0451C5.86672 14.8788 6.03739 14.6411 6.59291 13.8079L11.743 6.08274C11.7677 6.04568 11.792 6.0091 11.8161 5.973C12.2654 5.29821 12.6044 4.78895 13.0657 4.40982C13.472 4.07592 13.9401 3.82541 14.4432 3.6726C15.0145 3.4991 15.6263 3.49946 16.437 3.49995C16.4804 3.49997 16.5243 3.5 16.5689 3.5H16.5858L15.2929 2.20711C14.9024 1.81658 14.9024 1.18342 15.2929 0.792893ZM4.97562 5.5863C4.72499 5.51019 4.4326 5.5 3.43112 5.5H1C0.447715 5.5 0 5.05228 0 4.5C0 3.94772 0.447715 3.5 1 3.5H3.43112C3.47566 3.5 3.51961 3.49997 3.56298 3.49995C4.37365 3.49946 4.98546 3.4991 5.55679 3.6726C6.05995 3.82541 6.52804 4.07592 6.93429 4.40982C7.39557 4.78894 7.73463 5.2982 8.18391 5.97299C8.20795 6.0091 8.2323 6.04568 8.25701 6.08274L8.49872 6.4453C8.80507 6.90483 8.68089 7.5257 8.22137 7.83205C7.76184 8.1384 7.14097 8.01423 6.83462 7.5547L6.59291 7.19214C6.03739 6.35886 5.86672 6.12123 5.66437 5.95491C5.46125 5.78796 5.2272 5.6627 4.97562 5.5863ZM15.2929 12.7929C15.6834 12.4024 16.3166 12.4024 16.7071 12.7929L19.7071 15.7929C20.0976 16.1834 20.0976 16.8166 19.7071 17.2071L16.7071 20.2071C16.3166 20.5976 15.6834 20.5976 15.2929 20.2071C14.9024 19.8166 14.9024 19.1834 15.2929 18.7929L16.5858 17.5H16.5689C16.5243 17.5 16.4804 17.5 16.437 17.5001C15.6263 17.5005 15.0145 17.5009 14.4432 17.3274C13.9401 17.1746 13.472 16.9241 13.0657 16.5902C12.6044 16.2111 12.2654 15.7018 11.8161 15.027C11.7921 14.9909 11.7677 14.9543 11.743 14.9173L11.5013 14.5547C11.1949 14.0952 11.3191 13.4743 11.7786 13.1679C12.2382 12.8616 12.859 12.9858 13.1654 13.4453L13.4071 13.8079C13.9626 14.6411 14.1333 14.8788 14.3356 15.0451C14.5388 15.212 14.7728 15.3373 15.0244 15.4137C15.275 15.4898 15.5674 15.5 16.5689 15.5H16.5858L15.2929 14.2071C14.9024 13.8166 14.9024 13.1834 15.2929 12.7929Z"
		fill="currentColor" />
</svg>