<svg xmlns="http://www.w3.org/2000/svg" width="24" height="18" viewBox="0 0 24 18" fill="none">
  <g clip-path="url(#clip0_2_147)">
    <path d="M18.8064 10.7095L18.4518 10.736L18.6689 10.7101H12.4128C12.0817 10.7101 11.7856 10.9175 11.6723 11.2287L10.81 13.5961C10.775 13.6925 10.6828 13.7571 10.5802 13.7571H1.12461L0.935868 14.2756L0.0367952 16.7467C-0.10491 17.1363 0.183324 17.5481 0.598188 17.5481H17.557C18.9897 17.5481 20.2699 16.6521 20.7601 15.3056L21.1924 14.1171C21.7954 12.4612 20.5689 10.7095 18.8064 10.7095ZM20.8391 14.0296L20.42 15.1814C19.9834 16.3801 18.8329 17.1857 17.557 17.1857H0.597585C0.487236 17.1857 0.42573 17.1158 0.404625 17.085C0.38352 17.0549 0.338295 16.9735 0.376284 16.8691L1.23375 14.5126H10.7509C10.804 14.5126 10.8552 14.5066 10.9059 14.4963H11.0156C11.1676 14.4963 11.3038 14.4011 11.3557 14.2582L11.3931 14.155C11.4202 14.111 11.4437 14.0646 11.4618 14.0145L12.3386 11.6074C12.3706 11.5205 12.4483 11.4584 12.54 11.4476L14.4835 11.2136C14.9797 11.1539 15.4784 11.1201 15.9777 11.1129L18.819 11.0707C19.545 11.0749 20.1987 11.4235 20.6081 12.0265C21.0067 12.6132 21.0809 13.3627 20.8385 14.029L20.8391 14.0296Z" fill="white"/>
    <path d="M21.459 0.451866H6.38698C6.13614 0.451866 5.91182 0.608646 5.82559 0.845022L4.862 3.49279L4.58643 4.24956H13.869C14.0354 4.24956 14.1512 4.41478 14.0939 4.57096L13.4716 6.28107C13.2931 6.77131 13.6561 7.28989 14.1783 7.28989H20.2089C21.6417 7.28989 22.9218 6.39383 23.4121 5.04733L23.8444 3.85882C24.4474 2.20298 23.2209 0.451263 21.4584 0.451263L21.459 0.451866ZM23.4917 3.77198L23.0726 4.92432C22.6366 6.12127 21.4891 6.92628 20.2156 6.92869H18.2215C17.6275 6.92869 17.0336 6.8913 16.4438 6.81774L14.4883 6.57232C14.3333 6.55302 14.2362 6.39443 14.2899 6.2473L14.9206 4.51428C15.1009 4.01801 14.7337 3.4934 14.2055 3.4934H5.24731L6.16629 0.96924C6.20005 0.876378 6.28869 0.814269 6.38759 0.814269H21.4596C22.1753 0.814269 22.8217 1.14833 23.2354 1.73204C23.6491 2.31574 23.7407 3.09059 23.4923 3.77259L23.4917 3.77198Z" fill="white"/>
    <path d="M3.16394 11.0876H8.41908C8.73566 11.0876 9.01847 10.8892 9.12701 10.5919L10.0858 7.95862C10.2709 7.45029 9.89402 6.91241 9.35313 6.91241H4.15105C3.82965 6.91241 3.54323 7.11321 3.43348 7.41471L2.46144 10.0836C2.28356 10.572 2.64536 11.0882 3.16454 11.0882L3.16394 11.0876ZM3.29419 10.0076L4.08954 7.82174C4.12331 7.72948 4.21075 7.66858 4.30843 7.66858H9.0456C9.21082 7.66858 9.326 7.83259 9.26931 7.98817L8.47456 10.1716C8.43959 10.2675 8.34853 10.3308 8.24723 10.3308H3.52031C3.35328 10.3308 3.2369 10.165 3.29419 10.0076Z" fill="white"/>
  </g>
  <defs>
    <clipPath id="clip0_2_147">
      <rect width="24" height="17.0963" fill="white" transform="translate(0 0.451874)"/>
    </clipPath>
  </defs>
</svg>